<svg xmlns="http://www.w3.org/2000/svg" viewBox="0 0 960 300" role="img" aria-label="Coco, Remy, Emmi und Wilma feiern gemeinsam"><rect width="960" height="300" rx="28" fill="#f3f8f6" /><svg viewBox="0 0 320 320" role="img" aria-labelledby="title desc" x="20" y="15" width="200" height="240">
<title id="crew0-title">GradeCrew Eule · Grade · Wilma freut sich</title><desc id="crew0-desc">Reduzierte Editorial-Illustration einer konzentrierten Eule.</desc>
<defs><linearGradient id="crew0-body" x1="0" y1="0" x2="1" y2="1"><stop stop-color="#B68F68" /><stop offset="1" stop-color="#8E6C4E" /></linearGradient><linearGradient id="crew0-face" x1="0" y1="0" x2="0" y2="1"><stop stop-color="#F6EADC" /><stop offset="1" stop-color="#E7D2BC" /></linearGradient><filter id="crew0-shadow" x="-30%" y="-30%" width="160%" height="160%"><feGaussianBlur stdDeviation="7" /></filter></defs>
<ellipse cx="160" cy="284" rx="78" ry="13" fill="#172033" opacity=".08" filter="url(#crew0-shadow)" />
<path d="M104 82 84 43c26 5 43 17 54 36zM216 82l21-39c-27 5-44 17-55 37z" fill="#7F6047" />
<path d="M93 134c0-55 28-91 67-91 40 0 68 36 68 91v66c0 46-27 77-68 77-40 0-67-31-67-77z" fill="url(#crew0-body)" />
<path d="M103 116c12-30 31-45 57-45 27 0 47 15 58 45-10 35-30 52-58 52-27 0-47-17-57-52z" fill="url(#crew0-face)" />
<path d="M111 118c10-18 24-28 42-29-9 11-13 24-11 39-13-1-23-4-31-10zM209 118c-10-18-24-28-42-29 9 11 13 24 11 39 13-1 23-4 31-10z" fill="#D9C0A8" opacity=".9" />
<path d="M133 114q6 -10 12 0" fill="none" stroke="#172033" stroke-width="3.5" stroke-linecap="round" /><path d="M175 114q6 -10 12 0" fill="none" stroke="#172033" stroke-width="3.5" stroke-linecap="round" />
<path d="M151 131c6-4 12-4 18 0-3 8-7 12-9 12-3 0-7-4-9-12z" fill="#D59A47" />
<path d="M112 164c9 11 15 29 17 54-13-6-23-15-29-28zM208 164c-9 11-15 29-17 54 13-6 23-15 29-28z" fill="#7F6047" />
<path d="M131 190c8 7 18 10 29 10 12 0 22-3 30-10M132 209c8 6 17 9 28 9 11 0 21-3 28-9" fill="none" stroke="#C8A888" stroke-width="3" stroke-linecap="round" opacity=".8" />
<path d="M136 271c-1 10 4 16 14 16M184 271c1 10-4 16-14 16" fill="none" stroke="#B48348" stroke-width="6" stroke-linecap="round" />
</svg><text x="120" y="277" text-anchor="middle" font-family="sans-serif" font-size="19" fill="#244d43" font-weight="700">Wilma</text><svg viewBox="0 0 320 320" role="img" aria-labelledby="title desc" x="260" y="15" width="200" height="240">
<title id="crew1-title">GradeCrew Pinguin · Guide · Coco freut sich</title><desc id="crew1-desc">Reduzierte Editorial-Illustration eines ruhigen Pinguins.</desc>
<defs><linearGradient id="crew1-body" x1="0" y1="0" x2="1" y2="1"><stop stop-color="#253247" /><stop offset="1" stop-color="#151D2A" /></linearGradient><linearGradient id="crew1-belly" x1="0" y1="0" x2="0" y2="1"><stop stop-color="#F8FBFE" /><stop offset="1" stop-color="#DCEAF7" /></linearGradient><filter id="crew1-shadow" x="-30%" y="-30%" width="160%" height="160%"><feGaussianBlur stdDeviation="7" /></filter></defs>
<ellipse cx="160" cy="282" rx="72" ry="13" fill="#172033" opacity=".08" filter="url(#crew1-shadow)" />
<path d="M93 168c-17 20-27 49-22 76 3 15 11 22 20 16 11-8 17-25 22-47z" fill="#202B3D" />
<path d="M227 166c18 19 29 47 25 73-2 15-10 24-20 18-12-7-19-23-25-45z" fill="#202B3D" />
<path d="M160 38c-47 0-80 37-80 97 0 90 31 143 80 143s80-53 80-143c0-60-33-97-80-97z" fill="url(#crew1-body)" />
<path d="M160 78c-36 0-58 30-58 79 0 69 21 107 58 107s58-38 58-107c0-49-22-79-58-79z" fill="url(#crew1-belly)" />
<path d="M114 93c11-17 27-27 46-27 20 0 36 10 47 28-13-5-29-8-47-8-17 0-33 2-46 7z" fill="#172033" />
<path d="M130 107q6 -10 12 0" fill="none" stroke="#172033" stroke-width="3.5" stroke-linecap="round" /><path d="M179 107q6 -10 12 0" fill="none" stroke="#172033" stroke-width="3.5" stroke-linecap="round" />
<path d="M151 118c6-5 13-5 19 0-2 8-7 12-10 12-4 0-8-4-9-12z" fill="#D69450" />
<path d="M128 272c-3 11-1 18 10 18h16c7 0 9-5 5-12z" fill="#D69450" /><path d="M192 272c3 11 1 18-10 18h-16c-7 0-9-5-5-12z" fill="#D69450" />
<path d="M123 145c9 4 20 6 37 6 16 0 28-2 37-6" fill="none" stroke="#BFD4E7" stroke-width="3" stroke-linecap="round" opacity=".75" />
</svg><text x="360" y="277" text-anchor="middle" font-family="sans-serif" font-size="19" fill="#244d43" font-weight="700">Coco</text><svg viewBox="0 0 320 320" role="img" aria-labelledby="title desc" x="500" y="15" width="200" height="240">
<title id="crew2-title">GradeCrew Fuchs · Improve · Emmi freut sich</title><desc id="crew2-desc">Reduzierte Editorial-Illustration eines aufmerksamen Fuchses.</desc>
<defs><linearGradient id="crew2-fur" x1="0" y1="0" x2="1" y2="1"><stop stop-color="#D77A50" /><stop offset="1" stop-color="#B95636" /></linearGradient><linearGradient id="crew2-cream" x1="0" y1="0" x2="0" y2="1"><stop stop-color="#FFF7EE" /><stop offset="1" stop-color="#F2DDC7" /></linearGradient><filter id="crew2-shadow" x="-30%" y="-30%" width="160%" height="160%"><feGaussianBlur stdDeviation="7" /></filter></defs>
<ellipse cx="161" cy="283" rx="85" ry="13" fill="#172033" opacity=".08" filter="url(#crew2-shadow)" />
<path d="M205 210c42-6 73 12 80 39 6 23-13 39-44 34-17-3-32-12-43-27 20-2 37-8 50-20-15-10-31-13-49-10z" fill="url(#crew2-fur)" />
<path d="M111 139c-11 28-11 65 3 96 10 23 27 37 49 39 30 3 53-15 62-47 8-28 4-63-11-88z" fill="url(#crew2-fur)" />
<path d="M112 86 86 39c31 4 52 18 65 42zM207 85l30-45c-31 2-53 15-68 39z" fill="#B95636" />
<path d="M116 89 99 58c19 5 31 14 39 28zM203 88l20-30c-18 5-31 14-40 27z" fill="#F0C4A8" />
<path d="M102 111c15-30 37-45 66-45 29 0 52 15 68 44-10 38-34 62-68 62-33 0-56-23-66-61z" fill="url(#crew2-fur)" />
<path d="M129 121c8 15 21 23 39 23 18 0 31-8 39-23-7 27-20 42-39 42-18 0-31-15-39-42z" fill="url(#crew2-cream)" />
<path d="M137 113q6 -10 12 0" fill="none" stroke="#172033" stroke-width="3.5" stroke-linecap="round" /><path d="M188 113q6 -10 12 0" fill="none" stroke="#172033" stroke-width="3.5" stroke-linecap="round" />
<path d="M160 128c6-5 12-5 17 0-2 7-6 10-9 10-4 0-7-3-8-10z" fill="#172033" />
<path d="M151 142q17 18 34 0" fill="none" stroke="#A74B31" stroke-width="2.7" stroke-linecap="round" />
<path d="M125 210c12 9 25 14 41 14 17 0 31-5 43-15" fill="none" stroke="#EDB18E" stroke-width="3" stroke-linecap="round" opacity=".8" />
</svg><text x="600" y="277" text-anchor="middle" font-family="sans-serif" font-size="19" fill="#244d43" font-weight="700">Emmi</text><svg viewBox="0 0 320 320" role="img" aria-labelledby="title desc" x="740" y="15" width="200" height="240">
<title id="crew3-title">GradeCrew Elefant · Erstellen · Remy freut sich</title><desc id="crew3-desc">Reduzierte Editorial-Illustration eines ruhigen Elefanten mit bewusst großem Kopf als Symbol für durchdachtes Erstellen.</desc>
<defs>
  <linearGradient id="crew3-head" x1="0" y1="0" x2="0" y2="1"><stop stop-color="#A7BACB" /><stop offset="1" stop-color="#768DA3" /></linearGradient>
  <linearGradient id="crew3-ear" x1="0" y1="0" x2="1" y2="1"><stop stop-color="#C5D3DF" /><stop offset="1" stop-color="#8EA4B8" /></linearGradient>
  <filter id="crew3-shadow" x="-30%" y="-30%" width="160%" height="160%"><feGaussianBlur stdDeviation="7" /></filter>
</defs>
<ellipse cx="160" cy="284" rx="78" ry="13" fill="#172033" opacity=".08" filter="url(#crew3-shadow)" />
<path d="M107 213c6-29 25-45 53-45s47 16 53 45l8 51c-17 10-37 15-61 15s-44-5-61-15z" fill="#6E8499" />
<path d="M116 258v22M147 264v18M174 264v18M205 258v22" stroke="#53697E" stroke-width="10" stroke-linecap="round" />
<path d="M80 92c-35 12-49 47-35 82 9 23 28 37 51 39 4-39 13-76 28-109-12-11-27-15-44-12z" fill="url(#crew3-ear)" />
<path d="M240 92c35 12 49 47 35 82-9 23-28 37-51 39-4-39-13-76-28-109 12-11 27-15 44-12z" fill="url(#crew3-ear)" />
<path d="M93 82c15-35 39-53 67-53s52 18 67 53c13 30 15 66 6 99-8 30-25 50-49 60-8 4-16 6-24 6s-16-2-24-6c-24-10-41-30-49-60-9-33-7-69 6-99z" fill="url(#crew3-head)" />
<path d="M113 69c13-19 29-29 47-29s34 10 47 29c-13-7-29-10-47-10s-34 3-47 10z" fill="#C6D4DF" opacity=".58" />
<path d="M144 164c1 36-3 66-12 90-5 14 2 24 16 21 14-3 24-12 29-27" fill="none" stroke="#8198AC" stroke-width="24" stroke-linecap="round" />
<path d="M151 250c7 8 16 10 27 5" fill="none" stroke="#5C7288" stroke-width="4" stroke-linecap="round" opacity=".7" />
<path d="M126 128q6 -10 12 0" fill="none" stroke="#172033" stroke-width="3.5" stroke-linecap="round" /><path d="M182 128q6 -10 12 0" fill="none" stroke="#172033" stroke-width="3.5" stroke-linecap="round" />
<path d="M120 112c7-5 14-6 21-3M179 109c7-3 14-2 21 3" fill="none" stroke="#53697E" stroke-width="3" stroke-linecap="round" />
<path d="M151 151c6 4 12 4 18 0" fill="none" stroke="#53697E" stroke-width="3" stroke-linecap="round" opacity=".75" />
<path d="M132 173c-4 11-9 18-16 23M188 173c4 11 9 18 16 23" fill="none" stroke="#F2F4F2" stroke-width="5" stroke-linecap="round" />
</svg><text x="840" y="277" text-anchor="middle" font-family="sans-serif" font-size="19" fill="#244d43" font-weight="700">Remy</text></svg>