<svg xmlns="http://www.w3.org/2000/svg" viewBox="0 0 320 320" role="img" aria-labelledby="title desc">
<title id="title">GradeCrew Fuchs · Improve · Emmi freut sich</title><desc id="desc">Reduzierte Editorial-Illustration eines aufmerksamen Fuchses.</desc>
<defs><linearGradient id="fur" x1="0" y1="0" x2="1" y2="1"><stop stop-color="#D77A50"/><stop offset="1" stop-color="#B95636"/></linearGradient><linearGradient id="cream" x1="0" y1="0" x2="0" y2="1"><stop stop-color="#FFF7EE"/><stop offset="1" stop-color="#F2DDC7"/></linearGradient><filter id="shadow" x="-30%" y="-30%" width="160%" height="160%"><feGaussianBlur stdDeviation="7"/></filter></defs>
<ellipse cx="161" cy="283" rx="85" ry="13" fill="#172033" opacity=".08" filter="url(#shadow)"/>
<path d="M205 210c42-6 73 12 80 39 6 23-13 39-44 34-17-3-32-12-43-27 20-2 37-8 50-20-15-10-31-13-49-10z" fill="url(#fur)"/>
<path d="M111 139c-11 28-11 65 3 96 10 23 27 37 49 39 30 3 53-15 62-47 8-28 4-63-11-88z" fill="url(#fur)"/>
<path d="M112 86 86 39c31 4 52 18 65 42zM207 85l30-45c-31 2-53 15-68 39z" fill="#B95636"/>
<path d="M116 89 99 58c19 5 31 14 39 28zM203 88l20-30c-18 5-31 14-40 27z" fill="#F0C4A8"/>
<path d="M102 111c15-30 37-45 66-45 29 0 52 15 68 44-10 38-34 62-68 62-33 0-56-23-66-61z" fill="url(#fur)"/>
<path d="M129 121c8 15 21 23 39 23 18 0 31-8 39-23-7 27-20 42-39 42-18 0-31-15-39-42z" fill="url(#cream)"/>
<path d="M137 113q6 -10 12 0" fill="none" stroke="#172033" stroke-width="3.5" stroke-linecap="round"/><path d="M188 113q6 -10 12 0" fill="none" stroke="#172033" stroke-width="3.5" stroke-linecap="round"/>
<path d="M160 128c6-5 12-5 17 0-2 7-6 10-9 10-4 0-7-3-8-10z" fill="#172033"/>
<path d="M151 142q17 18 34 0" fill="none" stroke="#A74B31" stroke-width="2.7" stroke-linecap="round"/>
<path d="M125 210c12 9 25 14 41 14 17 0 31-5 43-15" fill="none" stroke="#EDB18E" stroke-width="3" stroke-linecap="round" opacity=".8"/>
</svg>